<?xml version="1.0" encoding="iso-8859-1"?>
<!-- Generator: Adobe Illustrator 19.0.0, SVG Export Plug-In . SVG Version: 6.00 Build 0)  -->
<svg xmlns="http://www.w3.org/2000/svg" xmlns:xlink="http://www.w3.org/1999/xlink" version="1.1" id="Layer_1" x="0px" y="0px" viewBox="0 0 512 512" style="enable-background:new 0 0 512 512;" xml:space="preserve" width="512px" height="512px">
<g>
	<g>
		<path d="M463.706,305.445l-42.025-104.707c0.295-4.323,0.445-8.676,0.445-12.966C422.126,84.285,337.933,0.051,234.353,0    C131.452,0,47.218,83.705,46.582,186.593c-0.124,20.131,2.933,39.983,9.087,59.008l27.819,118.566    c3.847,16.392,5.796,33.239,5.796,50.073V512h230.796v-60.668c0-10.125,8.238-18.363,18.363-18.363h18.727    c26.633,0,48.302-21.668,48.302-48.302v-46.572h36.157c7.909,0,15.276-3.912,19.706-10.463    C465.766,321.08,466.652,312.786,463.706,305.445z M448.717,319.102c-1.617,2.39-4.2,3.762-7.087,3.762h-51.389v61.804    c0,18.235-14.834,33.07-33.07,33.07h-18.727c-18.525,0-33.596,15.071-33.596,33.596v45.434H104.517h-0.001v-82.525    c0-18.004-2.086-36.021-6.199-53.551L70.425,241.815l-0.173-0.616c-5.714-17.565-8.555-35.905-8.439-54.51    c0.584-94.54,77.984-171.454,172.624-171.454c95.092,0.047,172.455,77.448,172.455,172.541c0,4.491-0.178,9.059-0.529,13.578    l-0.138,1.775l43.344,107.993C450.645,313.801,450.334,316.71,448.717,319.102z" fill="#bdbebf"/>
	</g>
</g>
<g>
	<g>
		<g>
			<path d="M342.893,202.364v-54.428h-25.56c-1.665-5.376-3.822-10.58-6.451-15.562l18.077-18.078l-38.487-38.486l-18.077,18.077     c-4.982-2.628-10.186-4.786-15.563-6.451v-25.56h-54.428v25.559c-5.376,1.665-10.58,3.823-15.562,6.451l-18.077-18.077     l-38.487,38.486l18.077,18.078c-2.629,4.982-4.786,10.186-6.451,15.562h-25.56v54.428h25.56     c1.665,5.376,3.822,10.58,6.451,15.562l-18.077,18.078l38.487,38.486l18.077-18.077c4.983,2.628,10.187,4.786,15.563,6.451v25.56     h54.428h0v-25.559c5.375-1.665,10.579-3.823,15.562-6.451l18.077,18.077l38.487-38.486l-18.077-18.078     c2.629-4.982,4.786-10.186,6.451-15.562H342.893z M307.418,236.002l-16.946,16.946l-15.667-15.667l-5.122,3.151     c-6.897,4.243-14.377,7.343-22.233,9.216l-5.85,1.395v22.149h-23.964h-0.001v-22.145l-5.85-1.395     c-7.856-1.873-15.336-4.973-22.233-9.216l-5.122-3.151l-15.667,15.667l-16.946-16.946l15.667-15.667l-3.152-5.123     c-4.243-6.895-7.342-14.376-9.216-22.233l-1.394-5.85h-22.15v-23.964h22.15l1.394-5.85c1.874-7.858,4.974-15.338,9.216-22.233     l3.152-5.123l-15.667-15.667l16.946-16.946l15.667,15.667l5.123-3.152c6.894-4.242,14.374-7.341,22.232-9.215l5.85-1.395V77.107     h23.964V99.25l5.85,1.395c7.859,1.874,15.338,4.973,22.232,9.215l5.123,3.152l15.667-15.667l16.946,16.946l-15.666,15.667     l3.151,5.123c4.243,6.895,7.342,14.376,9.216,22.233l1.394,5.85h22.151v23.964h-22.15l-1.394,5.85     c-1.874,7.858-4.974,15.338-9.216,22.233l-3.151,5.123L307.418,236.002z" fill="#bdbebf"/>
			<path d="M229.618,113.495c-33.996,0-61.653,27.657-61.653,61.654s27.657,61.654,61.653,61.654     c33.996,0,61.654-27.657,61.654-61.654S263.613,113.495,229.618,113.495z M229.618,221.571c-25.597,0-46.42-20.825-46.42-46.421     s20.824-46.421,46.42-46.421c25.597,0,46.421,20.825,46.421,46.421S255.214,221.571,229.618,221.571z" fill="#bdbebf"/>
		</g>
	</g>
</g>
<g>
	<g>
		<g>
			<path d="M229.618,113.495c-33.996,0-61.653,27.657-61.653,61.654s27.657,61.654,61.653,61.654     c33.996,0,61.654-27.657,61.654-61.654S263.613,113.495,229.618,113.495z M229.618,221.571c-25.597,0-46.42-20.825-46.42-46.421     s20.824-46.421,46.42-46.421c25.597,0,46.421,20.825,46.421,46.421S255.214,221.571,229.618,221.571z" fill="#bdbebf"/>
			<path d="M229.618,143.354c-17.53,0-31.793,14.263-31.793,31.794s14.263,31.794,31.793,31.794     c17.531,0,31.794-14.263,31.794-31.794S247.149,143.354,229.618,143.354z M229.618,191.711c-9.131,0-16.561-7.429-16.561-16.562     c0-9.132,7.429-16.562,16.561-16.562c9.131,0,16.562,7.429,16.562,16.562C246.179,184.282,238.75,191.711,229.618,191.711z" fill="#bdbebf"/>
		</g>
	</g>
</g>
<g>
	<g>
		<rect x="204.054" y="475.424" width="85.129" height="15.232" fill="#bdbebf"/>
	</g>
</g>
<g>
	<g>
		<rect x="152.345" y="475.424" width="38.711" height="15.232" fill="#bdbebf"/>
	</g>
</g>
<g>
	<g>
		<path d="M380.188,113.783l-13.625,6.811c3.836,7.673,7.013,15.729,9.446,23.944l14.606-4.326    C387.929,131.145,384.421,122.252,380.188,113.783z" fill="#bdbebf"/>
	</g>
</g>
<g>
	<g>
		<path d="M318.644,47.054l-7.892,13.027c19.287,11.685,35.914,27.906,48.082,46.906l12.828-8.214    C358.244,77.822,339.911,59.939,318.644,47.054z" fill="#bdbebf"/>
	</g>
</g>
<g>
</g>
<g>
</g>
<g>
</g>
<g>
</g>
<g>
</g>
<g>
</g>
<g>
</g>
<g>
</g>
<g>
</g>
<g>
</g>
<g>
</g>
<g>
</g>
<g>
</g>
<g>
</g>
<g>
</g>
</svg>
